<svg width="1340" height="806" viewBox="0 0 1340 806" fill="none" xmlns="http://www.w3.org/2000/svg">
<g filter="url(#filter0_dd_357_77390)">
<g clip-path="url(#clip0_357_77390)">
<rect width="1334" height="800" transform="matrix(1 0 0 -1 3 802)" fill="#0C0512"/>
<path d="M520.133 202L2.99942 2" stroke="#B3B3B3"/>
<path d="M527.789 202L69.3847 1.99999" stroke="#B3B3B3"/>
<path d="M535.445 202L126.815 1.99996" stroke="#B3B3B3"/>
<path d="M543.1 202L177.421 1.99994" stroke="#B3B3B3"/>
<path d="M550.756 202L222.723 1.99998" stroke="#B3B3B3"/>
<path d="M558.412 202L263.827 1.99998" stroke="#B3B3B3"/>
<path d="M566.066 202L301.559 1.99999" stroke="#B3B3B3"/>
<path d="M573.723 202L336.559 1.99999" stroke="#B3B3B3"/>
<path d="M581.379 202L369.319 2" stroke="#B3B3B3"/>
<path d="M589.033 202L400.231 1.99997" stroke="#B3B3B3"/>
<path d="M596.689 202L429.615 1.99997" stroke="#B3B3B3"/>
<path d="M604.344 202L457.729 1.99998" stroke="#B3B3B3"/>
<path d="M612 202L484.792 1.99998" stroke="#B3B3B3"/>
<path d="M619.656 202L510.987 1.99998" stroke="#B3B3B3"/>
<path d="M627.311 202L536.468 1.99997" stroke="#B3B3B3"/>
<path d="M634.967 202L561.377 1.99998" stroke="#B3B3B3"/>
<path d="M642.623 202L585.834 1.99995" stroke="#B3B3B3"/>
<path d="M650.277 202L609.95 1.99996" stroke="#B3B3B3"/>
<path d="M657.934 202L633.831 1.99999" stroke="#B3B3B3"/>
<path d="M665.59 202L657.571 2.00037" stroke="#B3B3B3"/>
<path d="M673.244 202L681.263 2.00037" stroke="#B3B3B3"/>
<path d="M680.9 202L705.003 1.99999" stroke="#B3B3B3"/>
<path d="M688.557 202L728.884 1.99996" stroke="#B3B3B3"/>
<path d="M696.211 202L753 1.99995" stroke="#B3B3B3"/>
<path d="M703.867 202L777.457 1.99998" stroke="#B3B3B3"/>
<path d="M711.523 202L802.366 1.99997" stroke="#B3B3B3"/>
<path d="M719.178 202L827.847 1.99998" stroke="#B3B3B3"/>
<path d="M726.834 202L854.042 1.99998" stroke="#B3B3B3"/>
<path d="M734.49 202L881.105 1.99998" stroke="#B3B3B3"/>
<path d="M742.145 202L909.219 1.99997" stroke="#B3B3B3"/>
<path d="M749.801 202L938.603 1.99997" stroke="#B3B3B3"/>
<path d="M757.455 202L969.515 2" stroke="#B3B3B3"/>
<path d="M765.111 202L1002.28 1.99999" stroke="#B3B3B3"/>
<path d="M772.768 202L1037.27 1.99999" stroke="#B3B3B3"/>
<path d="M780.422 202L1075.01 1.99998" stroke="#B3B3B3"/>
<path d="M788.078 202L1116.11 1.99998" stroke="#B3B3B3"/>
<path d="M795.734 202L1161.41 1.99994" stroke="#B3B3B3"/>
<path d="M803.389 202L1212.02 1.99996" stroke="#B3B3B3"/>
<path d="M811.045 202L1269.45 1.99999" stroke="#B3B3B3"/>
<path d="M818.701 202L1335.83 2" stroke="#B3B3B3"/>
<path d="M520.133 202H818.7" stroke="#B3B3B3"/>
<path d="M520.133 202H818.7" stroke="#B3B3B3"/>
<path d="M520.133 202H818.7" stroke="#B3B3B3"/>
<path d="M520.133 202H818.7" stroke="#B3B3B3"/>
<path d="M520.133 202H818.7" stroke="#B3B3B3"/>
<path d="M520.133 202H818.701" stroke="#B3B3B3"/>
<path d="M520.133 202H818.702" stroke="#B3B3B3"/>
<path d="M520.131 201.999H818.704" stroke="#B3B3B3"/>
<path d="M520.125 201.997H818.708" stroke="#B3B3B3"/>
<path d="M520.115 201.993H818.718" stroke="#B3B3B3"/>
<path d="M520.096 201.985H818.738" stroke="#B3B3B3"/>
<path d="M520.061 201.972H818.774" stroke="#B3B3B3"/>
<path d="M519.998 201.948H818.835" stroke="#B3B3B3"/>
<path d="M519.896 201.909H818.936" stroke="#B3B3B3"/>
<path d="M519.736 201.847H819.098" stroke="#B3B3B3"/>
<path d="M519.49 201.751H819.345" stroke="#B3B3B3"/>
<path d="M519.121 201.609H819.711" stroke="#B3B3B3"/>
<path d="M518.588 201.402H820.248" stroke="#B3B3B3"/>
<path d="M517.826 201.108H821.007" stroke="#B3B3B3"/>
<path d="M516.766 200.697H822.07" stroke="#B3B3B3"/>
<path d="M515.311 200.135H823.525" stroke="#B3B3B3"/>
<path d="M513.346 199.375H825.487" stroke="#B3B3B3"/>
<path d="M510.734 198.365H828.101" stroke="#B3B3B3"/>
<path d="M507.303 197.038H831.531" stroke="#B3B3B3"/>
<path d="M502.85 195.315H835.984" stroke="#B3B3B3"/>
<path d="M497.133 193.104H841.7" stroke="#B3B3B3"/>
<path d="M489.867 190.294H848.967" stroke="#B3B3B3"/>
<path d="M480.715 186.755H858.118" stroke="#B3B3B3"/>
<path d="M469.287 182.335H869.546" stroke="#B3B3B3"/>
<path d="M455.131 176.86H883.705" stroke="#B3B3B3"/>
<path d="M437.721 170.127H901.115" stroke="#B3B3B3"/>
<path d="M416.457 161.903H922.378" stroke="#B3B3B3"/>
<path d="M390.654 151.924H948.18" stroke="#B3B3B3"/>
<path d="M359.533 139.888H979.302" stroke="#B3B3B3"/>
<path d="M322.207 125.453H1016.63" stroke="#B3B3B3"/>
<path d="M277.682 108.232H1061.15" stroke="#B3B3B3"/>
<path d="M224.83 87.7925H1114" stroke="#B3B3B3"/>
<path d="M162.398 63.6465H1176.44" stroke="#B3B3B3"/>
<path d="M88.9766 35.251H1249.86" stroke="#B3B3B3"/>
<path d="M3 2H1335.83" stroke="#B3B3B3"/>
<path d="M521.299 602L4.16543 802" stroke="#B3B3B3"/>
<path d="M528.955 602L70.5507 802" stroke="#B3B3B3"/>
<path d="M536.611 602L127.981 802" stroke="#B3B3B3"/>
<path d="M544.266 602L178.587 802" stroke="#B3B3B3"/>
<path d="M551.922 602L223.889 802" stroke="#B3B3B3"/>
<path d="M559.578 602L264.993 802" stroke="#B3B3B3"/>
<path d="M567.232 602L302.725 802" stroke="#B3B3B3"/>
<path d="M574.889 602L337.725 802" stroke="#B3B3B3"/>
<path d="M582.543 602L370.483 802" stroke="#B3B3B3"/>
<path d="M590.199 602L401.397 802" stroke="#B3B3B3"/>
<path d="M597.855 602L430.781 802" stroke="#B3B3B3"/>
<path d="M605.51 602L458.895 802" stroke="#B3B3B3"/>
<path d="M613.166 602L485.958 802" stroke="#B3B3B3"/>
<path d="M620.822 602L512.153 802" stroke="#B3B3B3"/>
<path d="M628.477 602L537.634 802" stroke="#B3B3B3"/>
<path d="M636.133 602L562.543 802" stroke="#B3B3B3"/>
<path d="M643.789 602L587 802" stroke="#B3B3B3"/>
<path d="M651.443 602L611.116 802" stroke="#B3B3B3"/>
<path d="M659.1 602L634.997 802" stroke="#B3B3B3"/>
<path d="M666.756 602L658.737 802" stroke="#B3B3B3"/>
<path d="M674.41 602L682.429 802" stroke="#B3B3B3"/>
<path d="M682.066 602L706.169 802" stroke="#B3B3B3"/>
<path d="M689.723 602L730.05 802" stroke="#B3B3B3"/>
<path d="M697.377 602L754.166 802" stroke="#B3B3B3"/>
<path d="M705.033 602L778.623 802" stroke="#B3B3B3"/>
<path d="M712.689 602L803.532 802" stroke="#B3B3B3"/>
<path d="M720.344 602L829.013 802" stroke="#B3B3B3"/>
<path d="M728 602L855.208 802" stroke="#B3B3B3"/>
<path d="M735.656 602L882.271 802" stroke="#B3B3B3"/>
<path d="M743.311 602L910.385 802" stroke="#B3B3B3"/>
<path d="M750.967 602L939.769 802" stroke="#B3B3B3"/>
<path d="M758.621 602L970.681 802" stroke="#B3B3B3"/>
<path d="M766.277 602L1003.44 802" stroke="#B3B3B3"/>
<path d="M773.934 602L1038.44 802" stroke="#B3B3B3"/>
<path d="M781.588 602L1076.17 802" stroke="#B3B3B3"/>
<path d="M789.244 602L1117.28 802" stroke="#B3B3B3"/>
<path d="M796.9 602L1162.58 802" stroke="#B3B3B3"/>
<path d="M804.555 602L1213.19 802" stroke="#B3B3B3"/>
<path d="M812.211 602L1270.62 802" stroke="#B3B3B3"/>
<path d="M819.867 602L1337 802" stroke="#B3B3B3"/>
<path d="M521.299 602H819.866" stroke="#B3B3B3"/>
<path d="M521.299 602H819.866" stroke="#B3B3B3"/>
<path d="M521.299 602H819.866" stroke="#B3B3B3"/>
<path d="M521.299 602H819.866" stroke="#B3B3B3"/>
<path d="M521.299 602H819.866" stroke="#B3B3B3"/>
<path d="M521.299 602H819.867" stroke="#B3B3B3"/>
<path d="M521.299 602H819.868" stroke="#B3B3B3"/>
<path d="M521.297 602.001H819.87" stroke="#B3B3B3"/>
<path d="M521.291 602.003H819.874" stroke="#B3B3B3"/>
<path d="M521.281 602.007H819.884" stroke="#B3B3B3"/>
<path d="M521.262 602.015H819.904" stroke="#B3B3B3"/>
<path d="M521.227 602.028H819.94" stroke="#B3B3B3"/>
<path d="M521.164 602.052H820.001" stroke="#B3B3B3"/>
<path d="M521.062 602.091H820.102" stroke="#B3B3B3"/>
<path d="M520.902 602.154H820.264" stroke="#B3B3B3"/>
<path d="M520.656 602.249H820.511" stroke="#B3B3B3"/>
<path d="M520.287 602.391H820.877" stroke="#B3B3B3"/>
<path d="M519.754 602.598H821.414" stroke="#B3B3B3"/>
<path d="M518.992 602.892H822.173" stroke="#B3B3B3"/>
<path d="M517.932 603.303H823.236" stroke="#B3B3B3"/>
<path d="M516.477 603.865H824.691" stroke="#B3B3B3"/>
<path d="M514.512 604.625H826.653" stroke="#B3B3B3"/>
<path d="M511.9 605.635H829.267" stroke="#B3B3B3"/>
<path d="M508.469 606.962H832.697" stroke="#B3B3B3"/>
<path d="M504.016 608.685H837.15" stroke="#B3B3B3"/>
<path d="M498.299 610.896H842.866" stroke="#B3B3B3"/>
<path d="M491.033 613.706H850.133" stroke="#B3B3B3"/>
<path d="M481.881 617.245H859.284" stroke="#B3B3B3"/>
<path d="M470.453 621.665H870.712" stroke="#B3B3B3"/>
<path d="M456.297 627.14H884.871" stroke="#B3B3B3"/>
<path d="M438.887 633.873H902.281" stroke="#B3B3B3"/>
<path d="M417.623 642.097H923.544" stroke="#B3B3B3"/>
<path d="M391.82 652.076H949.346" stroke="#B3B3B3"/>
<path d="M360.699 664.112H980.468" stroke="#B3B3B3"/>
<path d="M323.373 678.547H1017.79" stroke="#B3B3B3"/>
<path d="M278.848 695.768H1062.32" stroke="#B3B3B3"/>
<path d="M225.996 716.208H1115.17" stroke="#B3B3B3"/>
<path d="M163.564 740.354H1177.6" stroke="#B3B3B3"/>
<path d="M90.1426 768.749H1251.02" stroke="#B3B3B3"/>
<path d="M4.16602 802H1337" stroke="#B3B3B3"/>
<rect width="1334" height="800" transform="matrix(1 0 0 -1 3 802)" fill="url(#paint0_radial_357_77390)"/>
</g>
</g>
<defs>
<filter id="filter0_dd_357_77390" x="0" y="0" width="1340" height="806" filterUnits="userSpaceOnUse" color-interpolation-filters="sRGB">
<feFlood flood-opacity="0" result="BackgroundImageFix"/>
<feColorMatrix in="SourceAlpha" type="matrix" values="0 0 0 0 0 0 0 0 0 0 0 0 0 0 0 0 0 0 127 0" result="hardAlpha"/>
<feOffset dy="1"/>
<feGaussianBlur stdDeviation="1"/>
<feComposite in2="hardAlpha" operator="out"/>
<feColorMatrix type="matrix" values="0 0 0 0 0 0 0 0 0 0 0 0 0 0 0 0 0 0 0.06 0"/>
<feBlend mode="normal" in2="BackgroundImageFix" result="effect1_dropShadow_357_77390"/>
<feColorMatrix in="SourceAlpha" type="matrix" values="0 0 0 0 0 0 0 0 0 0 0 0 0 0 0 0 0 0 127 0" result="hardAlpha"/>
<feOffset dy="1"/>
<feGaussianBlur stdDeviation="1.5"/>
<feComposite in2="hardAlpha" operator="out"/>
<feColorMatrix type="matrix" values="0 0 0 0 0 0 0 0 0 0 0 0 0 0 0 0 0 0 0.1 0"/>
<feBlend mode="normal" in2="effect1_dropShadow_357_77390" result="effect2_dropShadow_357_77390"/>
<feBlend mode="normal" in="SourceGraphic" in2="effect2_dropShadow_357_77390" result="shape"/>
</filter>
<radialGradient id="paint0_radial_357_77390" cx="0" cy="0" r="1" gradientUnits="userSpaceOnUse" gradientTransform="translate(667 800) rotate(-90) scale(800 3684.94)">
<stop stop-color="#0C0512" stop-opacity="0"/>
<stop offset="0.160817" stop-color="#0C0512"/>
<stop offset="0.509686" stop-color="#0C0512"/>
<stop offset="0.824758" stop-color="#0C0512"/>
<stop offset="1" stop-color="#0C0512" stop-opacity="0"/>
</radialGradient>
<clipPath id="clip0_357_77390">
<path d="M3 796C3 799.314 5.68629 802 9 802H1331C1334.31 802 1337 799.314 1337 796V8C1337 4.68628 1334.31 2 1331 2H9.00002C5.68631 2 3 4.68628 3 8V796Z" fill="white"/>
</clipPath>
</defs>
</svg>
